<svg xmlns="http://www.w3.org/2000/svg" width="31.971" height="31.971" viewBox="0 0 31.971 31.971">
  <g id="settings" transform="translate(-1405.015 -687.015)">
    <g id="椭圆_7" data-name="椭圆 7" transform="translate(1412 694)" fill="none" stroke="#fff" stroke-width="5">
      <circle cx="9" cy="9" r="9" stroke="none"/>
      <circle cx="9" cy="9" r="6.5" fill="none"/>
    </g>
    <g id="组件_15_10" data-name="组件 15 – 10" transform="translate(1410.393 691)">
      <g id="组件_14_1" data-name="组件 14 – 1" transform="translate(7.607)">
        <g id="组件_13_1" data-name="组件 13 – 1">
          <rect id="矩形_17" data-name="矩形 17" width="4" height="3" transform="translate(1)" fill="#fff"/>
          <path id="多边形_4" data-name="多边形 4" d="M3,0,6,4H0Z" fill="#fff"/>
        </g>
        <g id="组件_13_2" data-name="组件 13 – 2" transform="translate(6 24) rotate(180)">
          <rect id="矩形_17-2" data-name="矩形 17" width="4" height="3" transform="translate(1)" fill="#fff"/>
          <path id="多边形_4-2" data-name="多边形 4" d="M3,0,6,4H0Z" fill="#fff"/>
        </g>
      </g>
      <g id="组件_14_2" data-name="组件 14 – 2" transform="translate(16.971 1.393) rotate(45)">
        <g id="组件_13_1-2" data-name="组件 13 – 1">
          <rect id="矩形_17-3" data-name="矩形 17" width="4" height="3" transform="translate(1)" fill="#fff"/>
          <path id="多边形_4-3" data-name="多边形 4" d="M3,0,6,4H0Z" fill="#fff"/>
        </g>
        <g id="组件_13_2-2" data-name="组件 13 – 2" transform="translate(6 24) rotate(180)">
          <rect id="矩形_17-4" data-name="矩形 17" width="4" height="3" transform="translate(1)" fill="#fff"/>
          <path id="多边形_4-4" data-name="多边形 4" d="M3,0,6,4H0Z" fill="#fff"/>
        </g>
      </g>
    </g>
    <g id="组件_15_11" data-name="组件 15 – 11" transform="translate(1421.985 687.015) rotate(45)">
      <g id="组件_14_1-2" data-name="组件 14 – 1" transform="translate(7.607)">
        <g id="组件_13_1-3" data-name="组件 13 – 1">
          <rect id="矩形_17-5" data-name="矩形 17" width="4" height="3" transform="translate(1)" fill="#fff"/>
          <path id="多边形_4-5" data-name="多边形 4" d="M3,0,6,4H0Z" fill="#fff"/>
        </g>
        <g id="组件_13_2-3" data-name="组件 13 – 2" transform="translate(6 24) rotate(180)">
          <rect id="矩形_17-6" data-name="矩形 17" width="4" height="3" transform="translate(1)" fill="#fff"/>
          <path id="多边形_4-6" data-name="多边形 4" d="M3,0,6,4H0Z" fill="#fff"/>
        </g>
      </g>
      <g id="组件_14_2-2" data-name="组件 14 – 2" transform="translate(16.971 1.393) rotate(45)">
        <g id="组件_13_1-4" data-name="组件 13 – 1">
          <rect id="矩形_17-7" data-name="矩形 17" width="4" height="3" transform="translate(1)" fill="#fff"/>
          <path id="多边形_4-7" data-name="多边形 4" d="M3,0,6,4H0Z" fill="#fff"/>
        </g>
        <g id="组件_13_2-4" data-name="组件 13 – 2" transform="translate(6 24) rotate(180)">
          <rect id="矩形_17-8" data-name="矩形 17" width="4" height="3" transform="translate(1)" fill="#fff"/>
          <path id="多边形_4-8" data-name="多边形 4" d="M3,0,6,4H0Z" fill="#fff"/>
        </g>
      </g>
    </g>
    <g id="组件_15_12" data-name="组件 15 – 12" transform="translate(1433 692.393) rotate(90)">
      <g id="组件_14_1-3" data-name="组件 14 – 1" transform="translate(7.607)">
        <g id="组件_13_1-5" data-name="组件 13 – 1">
          <rect id="矩形_17-9" data-name="矩形 17" width="4" height="3" transform="translate(1)" fill="#fff"/>
          <path id="多边形_4-9" data-name="多边形 4" d="M3,0,6,4H0Z" fill="#fff"/>
        </g>
        <g id="组件_13_2-5" data-name="组件 13 – 2" transform="translate(6 24) rotate(180)">
          <rect id="矩形_17-10" data-name="矩形 17" width="4" height="3" transform="translate(1)" fill="#fff"/>
          <path id="多边形_4-10" data-name="多边形 4" d="M3,0,6,4H0Z" fill="#fff"/>
        </g>
      </g>
      <g id="组件_14_2-3" data-name="组件 14 – 2" transform="translate(16.971 1.393) rotate(45)">
        <g id="组件_13_1-6" data-name="组件 13 – 1">
          <rect id="矩形_17-11" data-name="矩形 17" width="4" height="3" transform="translate(1)" fill="#fff"/>
          <path id="多边形_4-11" data-name="多边形 4" d="M3,0,6,4H0Z" fill="#fff"/>
        </g>
        <g id="组件_13_2-6" data-name="组件 13 – 2" transform="translate(6 24) rotate(180)">
          <rect id="矩形_17-12" data-name="矩形 17" width="4" height="3" transform="translate(1)" fill="#fff"/>
          <path id="多边形_4-12" data-name="多边形 4" d="M3,0,6,4H0Z" fill="#fff"/>
        </g>
      </g>
    </g>
  </g>
</svg>
